<?xml version="1.0" encoding="utf-8"?>
<!-- Generator: Adobe Illustrator 16.0.0, SVG Export Plug-In . SVG Version: 6.00 Build 0)  -->
<!DOCTYPE svg PUBLIC "-//W3C//DTD SVG 1.1//EN" "http://www.w3.org/Graphics/SVG/1.1/DTD/svg11.dtd">
<svg version="1.1" xmlns="http://www.w3.org/2000/svg" xmlns:xlink="http://www.w3.org/1999/xlink" x="0px" y="0px" width="136px"
	 height="127px" viewBox="0 0 136 127" enable-background="new 0 0 136 127" xml:space="preserve">
<g id="Layer_1">
</g>
<g id="Group_23">
	<g id="Shape_26">
		<g>
			<path fill="#59A1D8" d="M109.809,84.917c2.56-5.188,6.025-11.103,7.403-17.116V35.02c0-4.06,1.046-16.277-0.479-18.805
				c-1.375-1.773-12.368-1.1-15.521-1.687c-8.493-1.582-16.267-3.193-23.166-6.269c-3.647-1.624-7.099-6.103-11.223-6.508
				c-9.957,11.211-29.031,11.655-48.239,13.739c-2.229,4.105-0.716,31.33-0.716,38.571v13.979
				c4.682,20.117,29.145,52.967,48.955,57.133c5.536,1.162,22.382-11.886,24.837-15.187c5.809,0.081,20.259,1.268,23.879-0.965
				C123.688,103.999,113.589,89.287,109.809,84.917z M66.823,121.316c-4.484-1.012-9.648-4.497-13.134-6.991
				c-12.239-8.754-28.267-30.271-32.239-47.007V18.868c15.852-0.021,38.402-4.375,45.612-12.776
				c3.582,2.009,7.164,4.019,10.746,6.025c9.653,4.265,22.187,6.962,35.822,6.751v48.451c-1.911,4.58-3.821,9.161-5.731,13.742
				c-0.796-1.286-1.593-2.572-2.388-3.857c1.353-3.615,2.706-7.231,4.059-10.847V35.02c0-3.163,0.845-9.123-0.477-11.332
				c-1.311-1.684-12.087-1.766-15.044-2.41c-10.157-2.212-18.136-5.82-26.031-9.885c-3.638,0.47-6.274,3.258-9.313,4.58
				c-5.094,1.609-10.188,3.216-15.283,4.822c-5.651,0.804-11.305,1.606-16.957,2.41c-1.783,1.416-0.956,7.549-0.956,10.608v32.784
				c3.445,14.909,17.782,34.339,28.419,42.427c2.246,1.705,10.561,8.531,14.089,7.954c4.906-0.803,9.966-5.617,13.611-8.195
				c1.411,0.718,2.533,1.241,4.776,1.206C84.588,112.32,70.83,122.222,66.823,121.316z M79.24,105.89
				c-2.291,2.798-6.606,4.911-10.029,6.508V67.078h36.06c-0.875,2.329-1.751,4.662-2.627,6.991c-2.265-0.462-5.432-1.269-7.641,0
				c-3.184,1.824-13.546,20.298-15.763,24.587C78.078,100.909,78.223,103.688,79.24,105.89z M69.211,63.462
				c-0.08-8.436-0.159-16.875-0.239-25.31c-0.318-0.162-0.636-0.323-0.955-0.482c-3.864-1.107-2.53,21.038-2.388,25.792H29.091
				V26.34c14.685-1.435,25.939-4.822,36.538-9.885c0.08,5.143,0.159,10.285,0.239,15.428c0.786,0.499,0.958,0.694,2.388,0.723
				c1.964-3.092,1.04-11.375,0.956-16.151c2.945,1.366,5.89,2.733,8.835,4.099c8.076,3.212,17.678,5.021,27.941,5.786v37.122H69.211
				z M65.629,67.078v45.078c-16.689-5.346-29.722-28.593-36.061-45.078H65.629z M114.585,104.684
				c-0.914,1.6-25.527,2.974-29.852,1.687c-1.399-0.415-2.369-1.687-2.627-3.375c-0.687-2.514,2.067-5.212,3.104-6.99
				c3.589-6.146,6.881-14.542,12.181-19.043c6.319-0.036,15.107,19.655,18.147,24.83
				C115.482,103.192,115.276,103.97,114.585,104.684z M99.302,81.542c-0.398-0.082-0.796-0.161-1.194-0.24
				c-0.318,0.4-0.637,0.803-0.956,1.206v13.256c0.319,0.162,0.637,0.321,0.956,0.483c3.534,1.131,2.863-11.074,2.149-14.223
				C99.938,81.863,99.62,81.702,99.302,81.542z M96.914,99.862c0.079,0.563,0.159,1.126,0.238,1.688
				c0.319,0.158,0.637,0.32,0.956,0.481c0.477,0.08,0.955,0.16,1.433,0.239c0.239-0.4,0.478-0.803,0.716-1.204V99.38l-1.91-0.724
				C97.869,99.059,97.392,99.462,96.914,99.862z"/>
		</g>
	</g>
</g>
</svg>
